<?xml version="1.0" encoding="UTF-8" standalone="no"?>
<!DOCTYPE svg PUBLIC "-//W3C//DTD SVG 1.1//EN"
 "http://www.w3.org/Graphics/SVG/1.1/DTD/svg11.dtd">
<!-- Generated by graphviz version 2.43.0 (0)
 -->
<!-- Title: static_version Pages: 1 -->
<svg width="406pt" height="127pt"
 viewBox="0.00 0.00 406.00 127.00" xmlns="http://www.w3.org/2000/svg" xmlns:xlink="http://www.w3.org/1999/xlink">
<g id="graph0" class="graph" transform="scale(1 1) rotate(0) translate(4 123)">
<title>static_version</title>
<!-- vgv -->
<g id="node1" class="node">
<title>vgv</title>
<polygon fill="#f54d27" stroke="black" points="206,-119 28,-119 28,-83 206,-83 206,-119"/>
<text text-anchor="middle" x="117" y="-98.5" font-family="Arial" font-size="10.00">yourmodule._version_git.__version__</text>
</g>
<!-- vg -->
<g id="node3" class="node">
<title>vg</title>
<polygon fill="#f54d27" stroke="black" points="356,-36 140,-36 140,0 356,0 356,-36"/>
<text text-anchor="middle" x="248" y="-15.5" font-family="Arial" font-size="10.00">yourmodule._version_git.get_version_from_git</text>
</g>
<!-- vgv&#45;&gt;vg -->
<g id="edge1" class="edge">
<title>vgv&#45;&gt;vg</title>
<path fill="none" stroke="black" d="M135.92,-82.83C146.63,-73.61 160.54,-62.45 174,-54 181.69,-49.17 190.15,-44.58 198.52,-40.39"/>
<polygon fill="black" stroke="black" points="207.52,-36.03 200.49,-44.44 203.02,-38.21 198.53,-40.39 198.53,-40.39 198.53,-40.39 203.02,-38.21 196.56,-36.34 207.52,-36.03 207.52,-36.03"/>
<text text-anchor="middle" x="222.5" y="-57" font-family="Arial" font-size="10.00">get_version_from_git()</text>
</g>
<!-- v -->
<g id="node4" class="node">
<title>v</title>
<polygon fill="#f54d27" stroke="black" points="122,-36 0,-36 0,0 122,0 122,-36"/>
<text text-anchor="middle" x="61" y="-15.5" font-family="Arial" font-size="10.00">yourmodule.__version__</text>
</g>
<!-- vgv&#45;&gt;v -->
<g id="edge4" class="edge">
<title>vgv&#45;&gt;v</title>
<path fill="none" stroke="black" d="M103.83,-82.71C99.65,-77.11 95.07,-70.84 91,-65 86.5,-58.55 81.79,-51.47 77.47,-44.85"/>
<polygon fill="black" stroke="black" points="71.87,-36.2 81.08,-42.15 74.58,-40.4 77.3,-44.6 77.3,-44.6 77.3,-44.6 74.58,-40.4 73.52,-47.04 71.87,-36.2 71.87,-36.2"/>
<text text-anchor="middle" x="98" y="-57" font-family="Arial" font-size="10.00">0.1</text>
</g>
<!-- vga -->
<g id="node2" class="node">
<title>vga</title>
<polygon fill="#f54d27" stroke="black" points="398,-119 224,-119 224,-83 398,-83 398,-119"/>
<text text-anchor="middle" x="311" y="-98.5" font-family="Arial" font-size="10.00">yourmodule._version_git.GIT_REFS</text>
</g>
<!-- vga&#45;&gt;vg -->
<g id="edge2" class="edge">
<title>vga&#45;&gt;vg</title>
<path fill="none" stroke="black" d="M297.64,-82.82C288.95,-71.65 277.47,-56.9 267.74,-44.38"/>
<polygon fill="black" stroke="black" points="261.34,-36.15 271.03,-41.28 264.41,-40.1 267.48,-44.05 267.48,-44.05 267.48,-44.05 264.41,-40.1 263.93,-46.81 261.34,-36.15 261.34,-36.15"/>
<text text-anchor="middle" x="300" y="-57" font-family="Arial" font-size="10.00">tag: 0.1</text>
</g>
<!-- vg&#45;&gt;vgv -->
<g id="edge3" class="edge">
<title>vg&#45;&gt;vgv</title>
<path fill="none" stroke="black" d="M171.06,-36.03C160.22,-40.67 149.8,-46.54 141,-54 134.95,-59.12 130.23,-66.16 126.63,-73.19"/>
<polygon fill="black" stroke="black" points="122.4,-82.59 122.4,-71.62 124.45,-78.03 126.5,-73.47 126.5,-73.47 126.5,-73.47 124.45,-78.03 130.61,-75.32 122.4,-82.59 122.4,-82.59"/>
<text text-anchor="middle" x="148" y="-57" font-family="Arial" font-size="10.00">0.1</text>
</g>
</g>
</svg>
