<?xml version="1.0" encoding="UTF-8" standalone="no"?>
<!DOCTYPE svg PUBLIC "-//W3C//DTD SVG 1.1//EN"
 "http://www.w3.org/Graphics/SVG/1.1/DTD/svg11.dtd">
<!-- Generated by graphviz version 2.43.0 (0)
 -->
<!-- Title: from_git Pages: 1 -->
<svg width="375pt" height="210pt"
 viewBox="0.00 0.00 375.00 210.00" xmlns="http://www.w3.org/2000/svg" xmlns:xlink="http://www.w3.org/1999/xlink">
<g id="graph0" class="graph" transform="scale(1 1) rotate(0) translate(4 206)">
<title>from_git</title>
<!-- vgv -->
<g id="node1" class="node">
<title>vgv</title>
<polygon fill="#f54d27" stroke="black" points="307,-202 129,-202 129,-166 307,-166 307,-202"/>
<text text-anchor="middle" x="218" y="-181.5" font-family="Arial" font-size="10.00">yourmodule._version_git.__version__</text>
</g>
<!-- vg -->
<g id="node2" class="node">
<title>vg</title>
<polygon fill="#f54d27" stroke="black" points="216,-119 0,-119 0,-83 216,-83 216,-119"/>
<text text-anchor="middle" x="108" y="-98.5" font-family="Arial" font-size="10.00">yourmodule._version_git.get_version_from_git</text>
</g>
<!-- vgv&#45;&gt;vg -->
<g id="edge1" class="edge">
<title>vgv&#45;&gt;vg</title>
<path fill="none" stroke="black" d="M128.87,-170.93C117.21,-165.64 106.68,-158.26 99,-148 94.87,-142.48 94.46,-135.59 95.76,-128.82"/>
<polygon fill="black" stroke="black" points="98.64,-119.19 100.08,-130.06 97.21,-123.98 95.77,-128.77 95.77,-128.77 95.77,-128.77 97.21,-123.98 91.46,-127.48 98.64,-119.19 98.64,-119.19"/>
<text text-anchor="middle" x="147.5" y="-140" font-family="Arial" font-size="10.00">get_version_from_git()</text>
</g>
<!-- v -->
<g id="node4" class="node">
<title>v</title>
<polygon fill="#f54d27" stroke="black" points="367,-119 245,-119 245,-83 367,-83 367,-119"/>
<text text-anchor="middle" x="306" y="-98.5" font-family="Arial" font-size="10.00">yourmodule.__version__</text>
</g>
<!-- vgv&#45;&gt;v -->
<g id="edge5" class="edge">
<title>vgv&#45;&gt;v</title>
<path fill="none" stroke="black" d="M259.88,-165.97C268.59,-161.09 277.18,-155.11 284,-148 289.19,-142.59 293.35,-135.73 296.6,-128.97"/>
<polygon fill="black" stroke="black" points="300.72,-119.31 300.93,-130.28 298.75,-123.91 296.79,-128.51 296.79,-128.51 296.79,-128.51 298.75,-123.91 292.65,-126.75 300.72,-119.31 300.72,-119.31"/>
<text text-anchor="middle" x="323.5" y="-140" font-family="Arial" font-size="10.00">0.1+3.abc1234</text>
</g>
<!-- vg&#45;&gt;vgv -->
<g id="edge4" class="edge">
<title>vg&#45;&gt;vgv</title>
<path fill="none" stroke="black" d="M168.82,-119.19C178.68,-123.85 188.19,-129.7 196,-137 201.69,-142.32 206.07,-149.42 209.36,-156.44"/>
<polygon fill="black" stroke="black" points="213.21,-165.8 205.25,-158.26 211.31,-161.18 209.41,-156.55 209.41,-156.55 209.41,-156.55 211.31,-161.18 213.57,-154.84 213.21,-165.8 213.21,-165.8"/>
<text text-anchor="middle" x="236.5" y="-140" font-family="Arial" font-size="10.00">0.1+3.abc1234</text>
</g>
<!-- Git -->
<g id="node3" class="node">
<title>Git</title>
<polygon fill="#f54d27" stroke="black" points="135,-36 81,-36 81,0 135,0 135,-36"/>
<text text-anchor="middle" x="108" y="-15.5" font-family="Arial" font-size="10.00">Git</text>
</g>
<!-- vg&#45;&gt;Git -->
<g id="edge2" class="edge">
<title>vg&#45;&gt;Git</title>
<path fill="none" stroke="black" d="M74.78,-82.9C68.43,-78.02 62.64,-72.06 59,-65 53.26,-53.84 60.99,-43.93 71.89,-36.2"/>
<polygon fill="black" stroke="black" points="80.68,-30.73 74.57,-39.84 76.43,-33.37 72.19,-36.02 72.19,-36.02 72.19,-36.02 76.43,-33.37 69.81,-32.2 80.68,-30.73 80.68,-30.73"/>
<text text-anchor="middle" x="97.5" y="-57" font-family="Arial" font-size="10.00">describe &#45;&#45;tags ...</text>
</g>
<!-- Git&#45;&gt;vg -->
<g id="edge3" class="edge">
<title>Git&#45;&gt;vg</title>
<path fill="none" stroke="black" d="M127.18,-36.04C134.18,-44.36 139.59,-54.77 136,-65 134.83,-68.33 133.2,-71.58 131.3,-74.68"/>
<polygon fill="black" stroke="black" points="125.42,-82.91 127.57,-72.16 128.33,-78.84 131.23,-74.77 131.23,-74.77 131.23,-74.77 128.33,-78.84 134.89,-77.39 125.42,-82.91 125.42,-82.91"/>
<text text-anchor="middle" x="170.5" y="-57" font-family="Arial" font-size="10.00">0.1&#45;3&#45;gabc1234</text>
</g>
</g>
</svg>
